<svg data-name="Group 23" xmlns="http://www.w3.org/2000/svg" width="71.199" height="71.199">
    <circle data-name="Ellipse 7" cx="35.599" cy="35.599" r="35.599" style="fill:#ed1d41"/>
    <path data-name="Path 106" d="M13.889-284.046H8.8v-4.844l5.089-1.226v-1.717a15.238 15.238 0 0 1 .95-5.488 11.92 11.92 0 0 1 2.7-4.231 11.921 11.921 0 0 1 4.231-2.7 15.42 15.42 0 0 1 5.549-.95 20.122 20.122 0 0 1 3.648.4 21.167 21.167 0 0 1 4.507 1.441l-1.9 5.457q-1.778-.49-3.035-.736a12.086 12.086 0 0 0-2.3-.245 5.713 5.713 0 0 0-4.629 1.931 7.69 7.69 0 0 0-1.625 5.12v26.334h-8.096zm19.008-6.07v6.07h-8.83a19.436 19.436 0 0 1 .8-2.085 7.96 7.96 0 0 1 1.226-1.962 6.651 6.651 0 0 1 1.747-1.441 4.647 4.647 0 0 1 2.361-.583z" transform="translate(13.464 320.95)" style="fill:#fff"/>
</svg>
