<svg xmlns="http://www.w3.org/2000/svg" width="69.906" height="65.736">
    <path data-name="Path 45759" d="M64.041 19.811a20.144 20.144 0 0 0-29.091.724 20.077 20.077 0 1 0-28.574 28.16A7.038 7.038 0 0 0 10.33 60.71a7.042 7.042 0 0 0 6.985 7.5 7.033 7.033 0 0 0 8.782 6.3 7.039 7.039 0 0 0 11.743 3.134c2.148-2.135 3.855-3.481 3.964-6.714a7.045 7.045 0 0 0 6.673-6.757 7.042 7.042 0 0 0 6.759-6.759A7.046 7.046 0 0 0 62 50.216l2.039-2.039a20.081 20.081 0 0 0 .002-28.366zM9.451 51.959l1.915-1.915a2.538 2.538 0 0 1 3.59 3.59l-1.915 1.915a2.538 2.538 0 0 1-3.59-3.59zm5.34 9.23a2.522 2.522 0 0 1 .744-1.8l1.916-1.916a2.538 2.538 0 0 1 3.589 3.591l-1.69 1.69a2.661 2.661 0 0 1-2.02.969 2.55 2.55 0 0 1-2.539-2.534zm7.728 8.329a2.55 2.55 0 0 1 0-3.59l1.69-1.69a2.571 2.571 0 0 1 3.815-.225 2.541 2.541 0 0 1 0 3.59l-1.915 1.915a2.541 2.541 0 0 1-3.59 0zm14.066 3.042-1.915 1.915a2.538 2.538 0 0 1-3.59 0 2.55 2.55 0 0 1 0-3.59L33 68.97a2.538 2.538 0 1 1 3.59 3.59zM56.779 52.2a2.55 2.55 0 0 1-3.59 0l-9.974-9.974-3.169 3.169 9.974 9.974a2.538 2.538 0 0 1-3.59 3.59l-9.8-9.8-.169-.169-3.169 3.169.169.169 9.8 9.8a2.539 2.539 0 0 1-3.59 3.59A7.023 7.023 0 0 0 33 63.979a7.054 7.054 0 0 0-6.76-5.188 7.046 7.046 0 0 0-6.083-6.473 7.036 7.036 0 0 0-10.426-6.6A15.607 15.607 0 1 1 31.781 23.7l-5.541 5.545 4.44 4.44a10.161 10.161 0 0 0 12.584 1.408l13.515 13.515a2.542 2.542 0 0 1 0 3.59zm4.093-7.189-.683.683q-.117-.129-.241-.252L43.44 28.931l-1.585 1.585a5.668 5.668 0 0 1-8.007 0l-1.271-1.271 6.265-6.265c15.22-14.007 36.033 6.82 22.029 22.028z" transform="translate(0 -13.955)" style="fill:#23305d"/>
</svg>
