<svg id="help" xmlns="http://www.w3.org/2000/svg" width="65.736" height="65.736">
    <defs>
        <style>
            .cls-1{fill:#23305d}
        </style>
    </defs>
    <g id="Group_24897" data-name="Group 24897">
        <g id="Group_24896" data-name="Group 24896">
            <path id="Path_45756" data-name="Path 45756" class="cls-1" d="M225.068 343.22a3.446 3.446 0 0 0 0 6.892 3.446 3.446 0 1 0 0-6.892z" transform="translate(-193.207 -299.154)"/>
            <path id="Path_45757" data-name="Path 45757" class="cls-1" d="M192.838 140c-6.042 0-8.816 3.58-8.816 6a2.566 2.566 0 0 0 2.685 2.551c2.417 0 1.432-3.446 6-3.446 2.238 0 4.028.985 4.028 3.043 0 2.417-2.506 3.8-3.983 5.057a8.192 8.192 0 0 0-3 6.8c0 2.327.626 3 2.461 3 2.193 0 2.64-.985 2.64-1.835 0-2.327.045-3.67 2.506-5.594 1.208-.94 5.012-3.983 5.012-8.19S198.567 140 192.838 140z" transform="translate(-160.395 -122.027)"/>
            <path id="Path_45758" data-name="Path 45758" class="cls-1" d="M32.868 0A32.85 32.85 0 0 0 0 32.868v30.3a2.568 2.568 0 0 0 2.568 2.568h30.3a32.868 32.868 0 0 0 0-65.736zm0 60.6H5.136V32.868A27.733 27.733 0 1 1 32.868 60.6z"/>
        </g>
    </g>
</svg>
