<svg xmlns="http://www.w3.org/2000/svg" width="357.205" height="1075.064">
    <defs>
        <style>
            .cls-1{fill:#facdde}.cls-2{fill:#fff}.cls-3{fill:#ecd4e1}.cls-4{fill:#201a21}.cls-5{fill:#ffcfa1}.cls-6{fill:#251742}.cls-7{fill:#462f6d}.cls-8{fill:#fc76ab}.cls-9{fill:#d08ad2}.cls-10{fill:#edf2fa}.cls-11{fill:#ffb4c1}.cls-13{fill:#f0f4ee}
        </style>
    </defs>
    <g id="Group_24901" data-name="Group 24901" transform="matrix(0 1 -1 0 2366.205 0)">
        <path id="Rectangle_18150" data-name="Rectangle 18150" class="cls-1" transform="translate(0 2009)" d="M0 0h178.517v178.602H0z"/>
        <path id="Path_45755" data-name="Path 45755" class="cls-2" d="M0 0h178.517v178.6H0z" transform="translate(178.517 2009)"/>
        <path id="Rectangle_18152" data-name="Rectangle 18152" class="cls-3" transform="translate(357.034 2009)" d="M0 0h178.517v178.602H0z"/>
        <path id="Rectangle_18159" data-name="Rectangle 18159" transform="translate(357.034 2187.602)" d="M0 0h178.517v178.602H0z"/>
        <path id="Rectangle_18160" data-name="Rectangle 18160" class="cls-4" transform="translate(178.517 2187.602)" d="M0 0h178.517v178.602H0z"/>
        <path id="Rectangle_18161" data-name="Rectangle 18161" class="cls-5" transform="translate(0 2187.602)" d="M0 0h178.517v178.602H0z"/>
        <path id="Path_45668" data-name="Path 45668" class="cls-6" d="M142.84 144.78V79s-11.425 52.841-59.51 65.837z" transform="translate(35.676 2042.823)"/>
        <path id="Path_45669" data-name="Path 45669" class="cls-7" d="M101.166 133.64V79s-11.425 52.841-59.5 65.837h59.5V133.7" transform="translate(17.841 2042.823)"/>
        <path id="Path_45670" data-name="Path 45670" class="cls-8" d="M59.51 144.78V79S48.085 131.841 0 144.837z" transform="translate(0 2042.823)"/>
        <path id="Path_45671" data-name="Path 45671" class="cls-2" d="M0 0v65.837S11.425 12.982 59.51 0z" transform="translate(0 2009)"/>
        <path id="Path_45672" data-name="Path 45672" class="cls-5" d="M41.67 0v65.837S53.024 12.982 101.166 0z" transform="translate(17.841 2009)"/>
        <path id="Path_45673" data-name="Path 45673" class="cls-9" d="M83.33 0v65.837S94.755 13 142.84 0z" transform="translate(35.676 2009)"/>
        <path id="Path_45680" data-name="Path 45680" class="cls-9" d="M125 0v178.6L303.517 0z" transform="translate(53.517 2009)"/>
        <path id="Path_45681" data-name="Path 45681" class="cls-5" d="M250 0v178.6h178.517S258.812 161.993 250 0z" transform="translate(107.033 2009)"/>
        <path id="Path_45682" data-name="Path 45682" class="cls-10" d="M428.517 178.6V0H250s169.705 16.609 178.517 178.6z" transform="translate(107.033 2009)"/>
        <path id="Path_45685" data-name="Path 45685" class="cls-11" d="M271.89 73.24a74.006 74.006 0 0 0-73.72 73.792h73.72z" transform="translate(84.843 2040.357)"/>
        <path id="Path_45686" data-name="Path 45686" class="cls-6" d="M233.7 98.11z" transform="translate(100.054 2051.004)"/>
        <path id="Path_45693" data-name="Path 45693" class="cls-6" d="M142.84 125.06v65.84s-11.425-52.841-59.51-65.837z" transform="translate(35.676 2062.542)"/>
        <path id="Path_45694" data-name="Path 45694" class="cls-7" d="M101.166 136.214V190.9s-11.425-52.841-59.5-65.837h59.5v11.154" transform="translate(17.841 2062.542)"/>
        <path id="Path_45695" data-name="Path 45695" class="cls-8" d="M59.51 125.06v65.84S48.085 138.056 0 125.06z" transform="translate(0 2062.542)"/>
        <path id="Path_45697" data-name="Path 45697" d="M41.67 269.866V204s11.354 52.841 59.5 65.837z" transform="translate(17.841 2096.339)" style="fill:#dc4d8e"/>
        <path id="Path_45698" data-name="Path 45698" class="cls-9" d="M83.33 269.866V204s11.425 52.841 59.51 65.837z" transform="translate(35.676 2096.339)"/>
        <path id="Path_45702" data-name="Path 45702" class="cls-1" d="M125 303.662V125.06h178.517S133.812 141.683 125 303.662z" transform="translate(53.517 2062.542)"/>
        <path id="Path_45703" data-name="Path 45703" class="cls-10" d="M303.517 125.06v178.6H125s169.705-16.607 178.517-178.6z" transform="translate(53.517 2062.542)"/>
        <path id="Rectangle_18177" data-name="Rectangle 18177" class="cls-2" transform="rotate(-135 700.861 1060.872)" d="M0 0h42.001v42.001H0z"/>
        <path id="Rectangle_18178" data-name="Rectangle 18178" class="cls-2" transform="rotate(-135 674.554 1064.98)" d="M0 0h25.606v25.606H0z"/>
        <path id="Rectangle_18179" data-name="Rectangle 18179" class="cls-2" transform="rotate(-135 722.36 1045.178)" d="M0 0h25.606v25.606H0z"/>
        <path id="Rectangle_18162" data-name="Rectangle 18162" class="cls-3" transform="translate(535.55 2009)" d="M0 0h178.517v178.602H0z"/>
        <path id="Rectangle_18163" data-name="Rectangle 18163" class="cls-9" transform="translate(714.067 2009)" d="M0 0h178.517v178.602H0z"/>
        <path id="Rectangle_18164" data-name="Rectangle 18164" class="cls-8" transform="translate(892.584 2009)" d="M0 0h178.517v178.602H0z"/>
        <path id="Rectangle_18171" data-name="Rectangle 18171" class="cls-2" transform="translate(892.584 2187.431)" d="M0 0h178.517v178.602H0z"/>
        <path id="Rectangle_18172" data-name="Rectangle 18172" transform="translate(714.067 2187.431)" d="M0 0h178.517v178.602H0z"/>
        <path id="Rectangle_18173" data-name="Rectangle 18173" class="cls-6" transform="translate(535.55 2187.431)" d="M0 0h178.517v178.602H0z"/>
        <ellipse id="Ellipse_1399" data-name="Ellipse 1399" class="cls-9" cx="11.754" cy="38.831" rx="11.754" ry="38.831" transform="rotate(-45 2746.435 347.031)"/>
        <ellipse id="Ellipse_1400" data-name="Ellipse 1400" class="cls-2" cx="38.831" cy="11.754" rx="38.831" ry="11.754" transform="rotate(-45 2822.944 293.07)"/>
        <path id="Path_45706" data-name="Path 45706" class="cls-5" d="M83.812 347.847c-15.167-15.167-23.736-31.176-19.151-35.7s20.608 3.984 35.7 19.151S124.1 362.472 119.515 367s-20.551-3.986-35.703-19.153z" transform="translate(562.704 1785.086)"/>
        <ellipse id="Ellipse_1401" data-name="Ellipse 1401" class="cls-4" cx="38.831" cy="11.754" rx="38.831" ry="11.754" transform="rotate(-45 2867.017 397.722)"/>
        <path id="Path_45707" data-name="Path 45707" class="cls-2" d="M125.457 263.484H125V403.57h.457a70.05 70.05 0 1 0 0-140.1z" transform="translate(589.067 1764.767)"/>
        <path id="Path_45708" data-name="Path 45708" d="M270.68 263.484h.457V403.57h-.457a70.05 70.05 0 1 1 0-140.1z" transform="translate(621.447 1764.767)"/>
        <circle id="Ellipse_1402" data-name="Ellipse 1402" class="cls-7" cx="12.096" cy="12.096" r="12.096" transform="rotate(-80.78 1633.806 590.198)"/>
        <circle id="Ellipse_1403" data-name="Ellipse 1403" class="cls-5" cx="5.741" cy="5.741" r="5.741" transform="translate(797.584 2050.788)"/>
        <circle id="Ellipse_1404" data-name="Ellipse 1404" class="cls-8" cx="5.741" cy="5.741" r="5.741" transform="translate(797.584 2134.333)"/>
        <path id="Path_45709" data-name="Path 45709" class="cls-13" d="M283.824 261.193a72.706 72.706 0 0 0-33.9 8.312v9.84a64.766 64.766 0 1 1 0 110.281v9.84a73.32 73.32 0 1 0 33.9-138.315z" transform="translate(642.549 1763.774)"/>
        <path id="Path_45710" data-name="Path 45710" class="cls-1" d="M373.251 261.193a72.749 72.749 0 0 1 33.9 8.312v9.84a64.766 64.766 0 1 0 0 110.281v9.84a73.32 73.32 0 1 1-33.9-138.315z" transform="translate(663.946 1763.774)"/>
        <circle id="Ellipse_1405" data-name="Ellipse 1405" class="cls-11" cx="26.321" cy="26.321" r="26.321" transform="rotate(-22.5 5684.642 -1200.113)"/>
        <circle id="Ellipse_1406" data-name="Ellipse 1406" class="cls-5" cx="26.321" cy="26.321" r="26.321" transform="rotate(-22.5 5741.794 -1487.438)"/>
        <path id="Path_45720" data-name="Path 45720" class="cls-11" d="M356.632 393.22a36.36 36.36 0 0 1-72.692 0z" transform="translate(657.114 1820.317)"/>
        <path id="Path_45721" data-name="Path 45721" class="cls-9" d="M356.632 424.94a36.36 36.36 0 0 1-72.692 0z" transform="translate(657.114 1833.898)"/>
        <path id="Path_45722" data-name="Path 45722" class="cls-5" d="M356.632 456.66a36.36 36.36 0 0 1-72.692 0z" transform="translate(657.114 1847.478)"/>
        <path id="Path_45723" data-name="Path 45723" class="cls-9" d="M185.83 525.577v-1.057a84.26 84.26 0 0 1 84.26-84.26c2.456 0 4.884.129 7.3.329v84.988z" transform="translate(615.11 1840.457)"/>
        <path id="Path_45724" data-name="Path 45724" class="cls-11" d="M216.528 374.84v1.06a84.26 84.26 0 0 1-84.26 84.26c-2.471 0-4.9-.129-7.3-.329v-84.977z" transform="translate(589.054 1812.448)"/>
        <circle id="Ellipse_1420" data-name="Ellipse 1420" class="cls-11" cx="11.668" cy="11.668" r="11.668" transform="rotate(-45 3029.856 348.59)"/>
        <circle id="Ellipse_1421" data-name="Ellipse 1421" class="cls-5" cx="11.668" cy="11.668" r="11.668" transform="rotate(-9.22 14160.827 -2635.93)"/>
        <circle id="Ellipse_1422" data-name="Ellipse 1422" class="cls-13" cx="11.668" cy="11.668" r="11.668" transform="rotate(-9.22 14140.084 -2379.073)"/>
        <circle id="Ellipse_1423" data-name="Ellipse 1423" class="cls-5" cx="11.668" cy="11.668" r="11.668" transform="translate(645.773 2269.206)"/>
        <circle id="Ellipse_1424" data-name="Ellipse 1424" class="cls-1" cx="11.668" cy="11.668" r="11.668" transform="translate(606.985 2269.206)"/>
        <circle id="Ellipse_1425" data-name="Ellipse 1425" class="cls-8" cx="11.668" cy="11.668" r="11.668" transform="translate(565.569 2269.206)"/>
        <circle id="Ellipse_1426" data-name="Ellipse 1426" class="cls-8" cx="11.668" cy="11.668" r="11.668" transform="rotate(-13.28 10237.127 -1609.095)"/>
        <circle id="Ellipse_1427" data-name="Ellipse 1427" class="cls-13" cx="11.668" cy="11.668" r="11.668" transform="rotate(-67.5 2040.407 710.231)"/>
        <circle id="Ellipse_1428" data-name="Ellipse 1428" class="cls-11" cx="11.668" cy="11.668" r="11.668" transform="rotate(-67.5 2019.686 741.226)"/>
    </g>
</svg>
